<svg preserveAspectRatio="none" overflow="visible" style="display: block;" width="20" height="20" viewBox="0 0 20 20" fill="none" xmlns="http://www.w3.org/2000/svg">
<g id="Frame">
<path id="Vector" d="M9.99563 18C9.58188 18 9.22917 17.8531 8.9375 17.5594C8.64583 17.2656 8.5 16.9125 8.5 16.5H11.5C11.5 16.9167 11.3527 17.2708 11.0581 17.5625C10.7635 17.8542 10.4094 18 9.99563 18ZM15.25 11V8.6875H13V7.3125H15.25V5H16.75V7.3125H19V8.6875H16.75V11H15.25ZM4 15.5V14H5V9C5 7.79167 5.37153 6.72917 6.11458 5.8125C6.85764 4.89583 7.81944 4.32639 9 4.10417V3C9 2.72222 9.09722 2.48611 9.29167 2.29167C9.48611 2.09722 9.72222 2 10 2C10.2778 2 10.5139 2.09722 10.7083 2.29167C10.9028 2.48611 11 2.72222 11 3V4.10417C11.3194 4.17361 11.6285 4.26736 11.9271 4.38542C12.2257 4.50347 12.5139 4.65278 12.7917 4.83333C12.6138 5.01014 12.4536 5.20271 12.3113 5.41104C12.1689 5.61937 12.0443 5.84347 11.9375 6.08333C11.6597 5.90278 11.3576 5.76042 11.0312 5.65625C10.7049 5.55208 10.3611 5.5 10 5.5C9.02778 5.5 8.20139 5.84028 7.52083 6.52083C6.84028 7.20139 6.5 8.02778 6.5 9V14H13.5V11.75C13.7361 11.9028 13.9757 12.0313 14.2188 12.1354C14.4618 12.2396 14.7222 12.3264 15 12.3958V14H16V15.5H4Z" fill="#0E0E11"/>
</g>
</svg>
